<?xml version="1.0" encoding="UTF-8"?>
<svg xmlns="http://www.w3.org/2000/svg" xmlns:xlink="http://www.w3.org/1999/xlink" viewBox="0 0 512 512">
  <defs>
    <style>
      .fill1 {
        fill: #ffb300;
      }

      .fill2 {
        fill: #fff;
      }

      .fill3 {
        fill: #00d0c1;
      }

      .fill4 {
        fill: #ff4d4d;
      }

      .fill5 {
        fill: url(#linear-gradient);
      }
    </style>
    <linearGradient id="linear-gradient" x1="190.71" y1="296.55" x2="367.38" y2="296.55" gradientUnits="userSpaceOnUse">
      <stop offset="0" stop-color="#bc15ff"/>
      <stop offset=".11" stop-color="#b219ff"/>
      <stop offset=".28" stop-color="#9924ff"/>
      <stop offset=".51" stop-color="#6f35ff"/>
      <stop offset=".77" stop-color="#364eff"/>
      <stop offset=".99" stop-color="#06f"/>
    </linearGradient>
  </defs>
  <g>
    <path class="fill3" d="m117.49,400.25c-1.83,0-3.69-.74-5.5-2.2-38.3-30.79-61.06-70.07-69.6-120.08-9.36-54.83.68-106.06,29.83-152.27,23.36-37.03,54.53-63.14,92.63-77.61,19-7.22,36.94-10.95,54.85-11.42.19,0,.39,0,.58,0,13.43,0,23.21,12.03,23.25,28.59.03,12.08.02,24.15,0,36.23-.02,18.35-.04,37.33.1,55.99.07,8.83-5.79,9.62-8.29,9.96-.32.04-.65.08-.96.15-.59.12-1.17.19-1.73.19-6.64,0-6.64-7.36-6.65-9.78v-3.71c-.03-4.47-.05-9.08.03-13.65-11.51,1.82-21.78,2.7-31.34,2.7-2.63,0-5.25-.07-7.8-.2-.01.07-.03.15-.04.23-2.86,16.63-5.75,34.34-6.82,52.04-.08,1.36-.23,2.69-.38,3.97-.09.75-.17,1.5-.24,2.25-.47,5.05-3.65,8.06-8.5,8.06-.19,0-.39,0-.58-.01-2.37-.1-4.38-1.01-5.81-2.63-1.1-1.24-2.34-3.5-2.04-7.19.62-7.55,1.38-15.74,2.32-25.02,1.12-10.96,2.82-22.15,5.06-33.29-9.97-1.27-20.17-3.62-30.35-6.98-.03.05-.06.11-.09.16-9.44,18.04-16.76,38.77-23.71,67.22-.08.32-.12.56-.14.74.02,0,3.11.82,3.11.82,11,2.9,22.37,5.89,33.63,6.73,1.72.13,3.36.42,4.94.7,1.85.33,3.6.65,5.24.65.55,0,1.06-.03,1.54-.11.58-.08,1.15-.13,1.7-.13,2.44,0,4.53.8,6.03,2.33,1.04,1.06,2.28,2.99,2.22,6.13-.1,6.15-3.93,10.44-9.52,10.69-.83.04-1.65.05-2.48.05-5.57,0-11.04-.78-16.32-1.53-.93-.13-1.85-.26-2.78-.39-10.18-1.4-20.38-3.8-30.33-7.13-3.17,23.23-3.08,47.63.26,74.57.11.9.26,1.28.32,1.41.05.02.14.05.28.09,11.14,2.88,20.94,4.41,29.95,4.67,8.38.25,10.17,5.27,10.19,9.44.02,3.03-.83,5.43-2.53,7.13-2.58,2.6-6.27,2.6-7.48,2.6-.25,0-.5,0-.74-.01-9.34-.29-18.4-1.84-25.78-3.38,4.03,17.12,9.21,31.7,15.76,44.42.48.94.94,1.9,1.4,2.85.56,1.17,1.09,2.27,1.66,3.33,2.5,4.65,1.66,9.1-2.29,12.21-1.88,1.48-3.69,2.2-5.54,2.2-2.01,0-4.87-.88-7.1-5.06-5.92-11.12-10.46-21.74-13.89-32.48-3.38-10.57-5.99-20.6-7.98-30.68-.42-2.14-.71-2.24-1.28-2.45-12.53-4.53-23.84-11.18-34.29-20.2,2.19,8.38,4.94,15.57,7.51,21.78,11,26.6,27.82,48.77,51.42,67.78.21.17.47.33.73.49,5.69,3.68,4.71,7.89,2.89,10.77-.22.35-.44.72-.66,1.1-1.43,2.45-3.58,6.14-7.9,6.14Zm-55.51-205.4c-3.95,17.56-5.75,33.65-5.51,49.17.12,7.76.92,13.59,4.55,18.63,8.72,12.13,19.93,21.43,34.18,28.34-2.5-21.33-2.85-39.36-1.12-56.55.44-4.32.9-8.63,1.35-12.87l.62-5.84s.03-.15.03-.16c-.08-.04-.62-.25-.62-.25-12.11-5.08-23.37-11.96-33.49-20.47Zm40.65-79.29c-14.37,16.93-25.82,36.33-34.04,57.67-.72,1.86-.68,1.89.26,2.75,9.03,8.35,19.1,15.07,30.74,20.5,5.11-23.49,13.11-46.5,23.79-68.42-7.23-3.61-14.19-7.83-20.71-12.54-.01.01-.02.03-.04.04Zm88.3,8.59c1.31.04,2.62.06,3.93.06,9.97,0,20.16-1.09,31.15-3.32,0-.13,0-.28,0-.45-.08-6.93-.06-13.97-.05-20.78,0-2.31.01-4.61.01-6.92v-8.02c0-6.34,0-12.68,0-19.02.01-6.84-3.11-8.23-4.13-8.69-.55-.25-1.04-.37-1.46-.37-1.18,0-2.59,1.22-4.18,3.63-12.59,19.08-19.43,41.95-25.28,63.88Zm-42.12-6.36c5.34,1.62,10.72,2.54,16.43,3.52,2.8.48,5.7.97,8.57,1.56.08-.23.17-.54.27-.95l.09-.38c1.2-4.87,2.44-9.91,3.78-14.83,3.18-11.68,7.41-23.61,12.84-36.19-15.6,11.2-29.36,26.68-41.81,46.99-.06.11-.12.21-.18.3Zm-32.92-15.95c4.84,3.09,9.95,5.8,14.91,8.43l1.68.89c.09-.14.2-.31.32-.52,8.91-15.41,19.01-28.93,30.12-40.34-16.65,7.39-32.42,17.95-47.03,31.53Z"/>
    <path class="fill3" d="m220.28,40.67c11.22,0,19.22,10.22,19.25,24.6.08,30.74-.12,61.49.11,92.23.05,6.25-3.39,5.61-6.06,6.16-.34.07-.64.1-.91.1-2.78,0-2.64-3.37-2.64-6.22-.02-5.74-.07-11.48.03-17.22.05-2.55-.16-3.98-2.18-3.98-.29,0-.62.03-.99.09-10.69,1.75-21.41,2.89-32.18,2.89-2.73,0-5.47-.07-8.21-.23-.13,0-.26-.01-.39-.01-1.84,0-2.73.86-3.19,3.59-2.99,17.35-5.79,34.73-6.87,52.48-.12,2.04-.42,4.06-.61,6.09-.33,3.55-2.24,4.43-4.52,4.43-.14,0-.27,0-.41,0-2.72-.12-4.32-1.99-4.04-5.5.68-8.32,1.47-16.64,2.31-24.93,1.14-11.13,2.83-22.13,5.02-33,.66-3.28.16-4.23-2.52-4.55-10.5-1.27-20.86-3.7-31.06-7.1-.5-.17-.95-.25-1.35-.25-1.21,0-2.07.78-2.99,2.54-11.02,21.05-18.2,44.2-24.05,68.13-.88,3.6.46,4.97,2.79,5.58,12.38,3.24,24.73,6.71,37.4,7.65,3.51.26,6.96,1.36,10.48,1.36.7,0,1.41-.04,2.12-.15.38-.05.75-.08,1.12-.08,2.3,0,4.3,1.14,4.25,4.39-.07,3.85-2.03,6.6-5.7,6.76-.77.03-1.53.05-2.3.05-6.23,0-12.4-1.04-18.56-1.89-10.46-1.44-20.81-3.93-30.98-7.42-.69-.24-1.25-.38-1.71-.38-1.2,0-1.71.93-2.05,3.43-3.54,25.46-2.99,50.85.16,76.27.35,2.85,1.29,4.29,3.57,4.88,10.18,2.63,20.44,4.49,30.83,4.8,3.27.1,6.29.77,6.31,5.47.03,4.84-2.84,5.7-6.01,5.7-.21,0-.41,0-.62,0-9.59-.3-19.05-1.95-28.48-4.02-.44-.1-.88-.38-1.36-.38-.35,0-.73.15-1.15.63,3.84,17.82,9.21,34.95,17.3,50.64,1.06,2.06,2.01,4.21,3.1,6.24,1.61,2.99,1.19,5.26-1.24,7.18-1.11.87-2.12,1.34-3.06,1.34-1.32,0-2.49-.92-3.57-2.94-5.35-10.06-10.02-20.57-13.61-31.82-3.15-9.86-5.83-19.93-7.87-30.24-.56-2.83-1.37-4.54-3.84-5.43-15.28-5.52-29.19-14.5-42.22-28.26,2.12,13.27,5.93,24.35,10.39,35.13,12.21,29.52,30.58,51.63,52.6,69.36,1.68,1.35,5.05,2.37,2.75,6-1.4,2.21-2.73,5.38-5.18,5.38-.85,0-1.83-.38-3-1.32-34.9-28.06-59.34-65.93-68.17-117.64-9.49-55.57,1.52-105.48,29.27-149.46,23.62-37.44,54.36-62.22,90.67-76.01,17.45-6.63,35.28-10.68,53.53-11.16.16,0,.32,0,.48,0m-25.42,87.54c10.83,0,21.58-1.27,32.3-3.48,2.34-.48,2.88-1.62,2.85-4.34-.11-9.21-.04-18.43-.03-27.65,0-9.01-.01-18.02,0-27.03,0-5.96-2.03-10.36-6.51-12.35-1.09-.49-2.12-.71-3.08-.71-2.9,0-5.3,2.06-7.52,5.43-12.94,19.62-19.92,42.86-26.21,66.59-.89,3.36.29,3.33,2.16,3.41,2.02.09,4.03.13,6.05.13m5.14-68.31c-22.19,12.44-39.8,31.63-54.43,55.5-2.7,4.4-.94,5.3,2.05,6.21,8.53,2.6,17.27,3.49,25.9,5.28.34.07.66.11.95.11,2.05,0,2.88-1.68,3.48-4.13,1.25-5.06,2.49-10.11,3.85-15.12,4.58-16.81,10.91-32.56,18.19-47.84m-67.01,55.57c1.28,0,2.18-.95,3.27-2.83,10.99-19.01,23.98-35.5,39.4-48.87.8-.7,1.67-1.29,2.5-1.93-.28-.42-.55-.85-.83-1.27-24.01,7.58-45.84,20.95-65.65,39.72-2.53,2.4-.51,3.24.85,4.13,5.91,3.88,12.06,7.07,18.19,10.33.9.48,1.63.72,2.27.72m-31.73,85.88c1.19,0,1.61-1.11,2.02-3.05,5.27-24.64,13.47-47.69,24.12-69.37.33-.67.74-1.27,1.04-1.77-.21-1.92-1.48-1.8-2.26-2.18-7.43-3.64-14.62-7.93-21.51-12.95-.84-.61-1.55-.9-2.21-.9-1.01,0-1.88.67-2.88,1.84-14.4,16.97-26.1,36.44-34.73,58.82-1.15,2.99-1.18,4.86,1.27,7.13,10.3,9.53,21.55,16.61,33.55,22.01.65.29,1.16.43,1.58.43m-2.8,95.25c1.22,0,1.29-1.34,1-3.7-2.38-19.28-3.36-38.63-1.4-58.08.63-6.27,1.32-12.53,1.96-18.55.59-3.42-1.26-3.92-3-4.65-11.93-5.01-23.17-11.85-33.55-20.76-1.17-1.01-2.07-1.48-2.78-1.48-1.22,0-1.89,1.4-2.47,3.93-3.78,16.59-6.03,33.47-5.75,50.77.12,7.56.84,14.69,5.3,20.9,10.79,15.01,24.17,24.55,39.09,31.19.67.3,1.19.44,1.59.44M220.28,32.67c-.23,0-.46,0-.69,0-18.36.47-36.74,4.29-56.17,11.67-38.93,14.79-70.75,41.44-94.59,79.22-29.7,47.07-39.93,99.24-30.39,155.07,4.43,25.97,12.95,49.67,25.32,70.44,11.62,19.52,27.01,37.05,45.72,52.09,2.55,2.05,5.24,3.08,8.01,3.08,6.62,0,9.82-5.49,11.35-8.13.2-.34.39-.67.58-.98,2.14-3.38,2.24-6.39,1.8-8.57,1.64-.49,3.26-1.35,4.83-2.59,5.55-4.37,6.8-10.82,3.34-17.25-.53-.98-1.04-2.04-1.58-3.17-.46-.96-.94-1.95-1.45-2.95-5.62-10.91-10.21-23.25-13.92-37.47,6.19,1.1,13.13,2.03,20.26,2.25.29,0,.58.01.87.01,1.62,0,6.56,0,10.32-3.77,1.7-1.71,3.72-4.83,3.69-9.97-.02-3.05-1.08-13.04-14.08-13.42-8.11-.24-16.92-1.55-26.86-3.99-2.92-24.25-3.15-46.4-.7-67.48,8.7,2.64,17.56,4.6,26.41,5.82.92.13,1.84.26,2.76.39,5.42.77,11.03,1.57,16.89,1.57.89,0,1.79-.02,2.65-.06,7.72-.34,13.21-6.35,13.35-14.61.05-3.16-.84-5.5-1.92-7.18,4.12-1.71,6.84-5.54,7.32-10.71.07-.72.15-1.44.23-2.17.15-1.34.31-2.72.4-4.19.99-16.36,3.56-32.8,6.21-48.37,1.48.04,2.96.06,4.46.06,8.46,0,17.44-.67,27.29-2.05-.02,3.04,0,6.07,0,9.04v3.26s.01.41.01.41c0,1.78,0,3.99.67,6.22,1.4,4.67,5.22,7.56,9.98,7.56.82,0,1.68-.09,2.54-.27.12-.03.43-.07.68-.1,1.66-.22,4.76-.64,7.48-2.98,2.87-2.48,4.31-6.17,4.28-10.97-.14-18.64-.12-37.61-.1-55.95.01-11.88.02-24.16,0-36.24-.05-18.88-11.51-32.58-27.25-32.58h0Zm-24.14,87.54c5.48-20.06,12.09-40.57,23.41-57.73.48-.73.87-1.22,1.15-1.52.56.45,1.29,1.59,1.28,4.74-.01,6.33,0,12.65,0,18.98v8.07c0,2.3,0,4.61-.01,6.92-.01,5.87-.03,11.92.02,17.93-9.03,1.67-17.53,2.53-25.85,2.61h0Zm-41.06-4.89c8.13-12.6,16.81-23.17,26.19-31.85-2.81,7.55-5.19,14.91-7.17,22.18-1.14,4.18-2.2,8.43-3.23,12.58-1.67-.3-3.33-.59-4.96-.86-3.73-.64-7.33-1.25-10.82-2.05h0Zm-32.53-14.1c7.52-6.61,15.32-12.41,23.38-17.4-5.28,6.83-10.27,14.18-14.95,22.03-2.89-1.54-5.69-3.04-8.43-4.63h0Zm-49.96,72.78c7.59-19.49,17.94-37.33,30.8-53.07,4.72,3.24,9.64,6.22,14.71,8.92-9.24,19.59-16.39,40-21.29,60.83-8.97-4.62-16.95-10.12-24.21-16.68h0Zm47.79,25.84c6.28-25.1,12.9-43.99,21.16-60.41,7.91,2.45,15.82,4.29,23.61,5.51-1.87,9.89-3.32,19.79-4.31,29.51-.95,9.31-1.71,17.52-2.33,25.1-.27,3.38.44,5.94,1.42,7.82-.63-.1-1.28-.21-1.95-.33-1.6-.29-3.42-.61-5.35-.76-10.69-.8-21.17-3.52-32.25-6.44h0Zm70.5-56.11s0,0,0,0h0Zm-100.45,140.23c-10.64-6.15-19.09-13.81-26.15-23.63-3.02-4.2-3.69-9.37-3.8-16.36-.21-13.33,1.13-27.11,4.08-41.93,8.44,6.42,17.57,11.81,27.24,16.07-.11,1-.22,2.01-.32,3.02-.45,4.22-.92,8.58-1.36,12.93-1.56,15.43-1.47,31.49.32,49.91h0Zm20.09,81.81c-15.67-15.55-27.45-33.13-35.79-53.31-1.19-2.89-2.43-5.99-3.62-9.33,7.54,5.2,15.53,9.36,24.07,12.56,2.02,10.2,4.67,20.36,8.08,31.05,2.03,6.35,4.43,12.65,7.26,19.02h0Z"/>
  </g>
  <g>
    <path class="fill1" d="m316.2,469.56c-15.24,0-29-10.09-35.92-26.35-.14-.34-.31-.69-.48-1.04-1.12-2.38-4.09-8.69,2.37-12.89,1.76-1.15,3.44-1.7,5.13-1.7,5.11,0,7.56,5.06,8.48,6.97,4.67,9.68,12.37,15.46,20.6,15.46,5.55,0,10.86-2.58,15.36-7.47,5.12-5.56,8.07-13.15,8.76-22.56.5-6.84,3.68-10.54,9.99-11.64,30.03-5.25,50.7-22.25,63.19-51.98.29-.7.62-1.52.87-2.32.68-2.18,1.37-4.42,1.51-5.45-.73-.45-2.34-1.15-3.78-1.77-.26-.11-.51-.22-.76-.32-1.75-.73-4.15-1.72-6-4.13-2.58-3.36-2.84-7.39-.73-11.35,2.2-4.14,5.16-5.01,7.26-5.01,1.05,0,2.12.22,3.2.67,4.31,1.78,7.89,2.64,10.94,2.64,6.14,0,11.03-3.69,16.33-12.33,6.67-10.85,9.64-22.9,8.83-35.81-.07-1.13-.3-2.33-.54-3.45-.39-1.8-.81-3.78-1.17-4.99-.87.29-2.09.77-3.2,1.2-3.78,1.48-7.64,2.23-11.48,2.23-5.58,0-11.18-1.58-16.64-4.7-.96,2.02-2.22,3.76-3.34,5.31-2.19,3.02-4.64,3.65-6.31,3.65-2.32,0-4.49-1.15-6.64-3.5-3.58-3.93-3.54-8.7.1-12.47,3.48-3.6,4.19-7.48,2.3-12.57-1.36-3.66-1.11-7.54-.94-10.38.35-5.52,3.81-9.08,8.84-9.08,4.73,0,8.12,3.36,8.65,8.55.07.68.13,1.35.19,2.03.55,6.09,1.01,9.35,4.75,11.13,3.49,1.66,6.62,2.47,9.57,2.47,3.56,0,6.88-1.2,10.17-3.66,8.9-6.67,10.13-18.21,10.16-28.63.03-10.65-1.89-19.38-5.88-26.69-.78-1.43-1.62-2.93-2.56-4.1-.65-.82-1.18-1.46-1.6-1.92-.57.59-1.2,1.31-1.49,1.64-6.66,7.62-15.51,11.81-24.92,11.81-13.47,0-25.73-8.3-32.57-21.85-2.75,2.98-4.94,6.3-6.64,10.02-2.33,5.12-5.64,6.2-8,6.2-1.53,0-3.08-.47-4.59-1.4-6.78-4.14-3.61-10.94-2.42-13.5,7.94-17.04,20.49-27.83,37.3-32.08,1.09-.28,2.1-.3,2.9-.32.37,0,.73-.02.98-.05.36-.05.72-.07,1.07-.07,3.86,0,6.69,2.68,7.55,7.18.85,4.41-1.04,8.36-4.83,10.06-1.44.65-2.85,1.09-4.21,1.52-.89.28-1.74.55-2.54.86-1.18.45-1.93.78-2.4,1.02.27.56.75,1.43,1.59,2.79,3.94,6.38,10.14,10.19,16.58,10.19,3.31,0,6.48-.96,9.42-2.86,7.93-5.12,11.08-17.48,7.68-30.05-2.84-10.5-7.76-19.2-15.04-26.58-3.44-3.5-7.25-5.8-11.66-7.05-.83-.23-1.51-.35-2.03-.35-.56,0-1.33,0-2.34,2.64-1.29,3.38-3.39,8.89-8.81,8.89-1.69,0-3.44-.6-5.2-1.8-4.67-3.16-5.85-8.3-2.94-12.79,3.6-5.55,2.57-10.92-.26-17.8-7.02-17.03-17.94-26.73-33.36-29.64-.7-.13-1.38-.2-2.03-.2-.22,0-.44,0-.66.02,6.04,10.87,9.59,21.51,10.83,32.38,3.18,27.81-8.16,55.08-28.22,67.85-1.9,1.21-3.69,1.8-5.45,1.8-2.54,0-4.81-1.19-6.75-3.55-.84-1.02-3.39-4.12-2.74-7.84.41-2.35,1.94-4.32,4.55-5.88,9.88-5.88,16.36-15.49,19.81-29.37,6.54-26.3-7.34-56.88-29.11-64.15-4.5-1.5-8.61-2.23-12.59-2.23-3.43,0-6.66.54-9.89,1.65-4.08,1.4-5.88,2.82-5.92,10.5-.15,28.43-.27,54.1-.23,80.29,0,2.81.01,10.28-8.65,10.59-.17,0-.33,0-.48,0-8.21,0-8.23-7.54-8.23-10.77-.02-11.99-.05-23.97-.09-35.96-.04-14.99-.09-29.99-.1-44.98-.01-15.27,8.28-26.59,21.63-29.56,4.13-.92,8.25-1.38,12.25-1.38,12.4,0,24.18,4.43,35,13.16l.26.21c.38.3.91.74,1.23.93,5.01-1.93,9.97-2.89,14.82-2.89,12.73,0,24.62,6.26,37.39,19.71,7.21,7.59,12.44,17.67,15.55,29.97.08.33.15.68.22,1.04,15.8.8,28.54,10.33,38.92,29.11,8.42,15.24,11.09,30.02,8.14,45.18-.05.24-.07.42-.08.54.07.06.16.13.28.23,10.13,7.77,16.96,22.85,18.74,41.39,1.7,17.68-1.62,34.21-8.87,44.23-.24.33-.35.53-.4.63.02.07.07.19.16.36,11.27,21.95,3,57-11.93,73.68-5.91,6.6-11.52,10.75-17.66,13.07-.16.06-.53.19-.56.2-5.75,30.53-22.19,53.2-50.26,69.3-7.66,4.39-15.91,7.46-24.52,9.11-1.12.21-1.27.24-1.79,2.64-4.23,19.25-13.53,31.93-27.64,37.67-4.33,1.76-8.82,2.66-13.33,2.66Z"/>
    <path class="fill1" d="m302.52,41.45c11.53,0,22.37,4.11,32.48,12.27,1.29,1.04,2.45,2.07,3.96,2.07.43,0,.89-.08,1.39-.28,4.7-1.83,9.18-2.66,13.47-2.66,12.91,0,24.13,7.56,34.49,18.47,7.16,7.54,11.8,17.22,14.57,28.19.44,1.73.29,3.96,2.75,4.01,16.64.35,28.07,11.37,36.76,27.09,7.07,12.8,10.74,26.92,7.72,42.48-.51,2.61.24,3.59,1.7,4.7,19.91,15.27,22.92,60.96,9.07,80.1-1.25,1.73-1.61,3.12-.56,5.17,10.87,21.17,1.88,54.4-11.35,69.18-4.73,5.29-9.87,9.65-16.1,11.99-1.28.48-2.61.69-3.06,3.09-6.12,32.69-24.23,52.86-48.34,66.68-7.41,4.25-15.22,7.1-23.28,8.65-3.18.61-4.18,2.21-4.95,5.71-3.63,16.53-11.28,29.14-25.24,34.82-3.92,1.6-7.91,2.36-11.83,2.36-13.32,0-25.82-8.84-32.24-23.92-1.21-2.85-3.7-6.36.39-9.01,1.11-.72,2.08-1.06,2.95-1.06,2.02,0,3.48,1.81,4.87,4.7,5.58,11.56,14.81,17.72,24.21,17.72,6.39,0,12.85-2.84,18.31-8.76,6.03-6.55,9.09-15.26,9.81-24.97.38-5.19,2.27-7.22,6.69-8,29.34-5.13,52.43-21.6,66.19-54.37.37-.87.72-1.76,1.01-2.68q2.77-8.93-4.52-12.09c-1.83-.8-3.76-1.38-5.16-3.21-1.72-2.24-1.63-4.68-.38-7.04.94-1.76,2.13-2.89,3.73-2.89.51,0,1.07.12,1.67.37,4.69,1.93,8.78,2.94,12.47,2.94,7.78,0,13.76-4.49,19.74-14.23,6.92-11.27,10.3-24,9.42-38.15-.08-1.36-.34-2.72-.63-4.04-1.34-6.21-1.84-8.42-4.04-8.42-1.23,0-2.98.69-5.7,1.75-3.38,1.32-6.72,1.96-10.02,1.96-5.17,0-10.23-1.56-15.14-4.46-.98-.58-1.77-.93-2.45-.93-.96,0-1.69.71-2.43,2.45-.8,1.9-2.02,3.57-3.2,5.2-1.03,1.41-2.05,2-3.08,2-1.24,0-2.47-.87-3.69-2.2-2.14-2.35-2.16-4.74.02-6.99,4.51-4.66,5.62-10.14,3.17-16.75-1.02-2.75-.88-5.78-.69-8.74.22-3.58,2.07-5.33,4.84-5.33h0c2.58,0,4.34,1.8,4.66,4.96.67,6.58.56,13.21,7.2,16.36,3.85,1.83,7.61,2.85,11.29,2.85,4.27,0,8.45-1.37,12.56-4.46,9.83-7.37,11.73-19.27,11.76-31.82.03-10.12-1.63-19.93-6.36-28.61-.89-1.63-1.82-3.28-2.94-4.68-2.17-2.72-3.41-4.06-4.67-4.06-1.21,0-2.45,1.23-4.55,3.63-6.19,7.08-14.05,10.44-21.91,10.44-11.96,0-23.93-7.76-30.11-22.01-.36-.82-.69-1.66-1.1-2.64-4.94,4.12-8.87,9.06-11.65,15.17-1.14,2.5-2.6,3.86-4.36,3.86-.78,0-1.61-.26-2.51-.81-3.4-2.08-2.43-5.08-.88-8.4,7.69-16.51,19.46-26.06,34.65-29.89,1.11-.28,2.28-.13,3.42-.28.19-.03.38-.04.56-.04,2.08,0,3.18,1.64,3.63,3.93.5,2.6-.45,4.72-2.54,5.65-2.13.95-4.38,1.47-6.55,2.3-6.29,2.42-6.58,3.48-2.78,9.64,4.83,7.82,12.34,12.08,19.98,12.08,3.95,0,7.93-1.14,11.59-3.5,9.57-6.18,13.21-20.27,9.37-34.46-3.09-11.41-8.51-20.69-16.05-28.34-3.94-4-8.38-6.66-13.42-8.09-1.12-.32-2.16-.5-3.12-.5-2.6,0-4.61,1.37-6.08,5.21-1.1,2.89-2.38,6.31-5.08,6.31-.84,0-1.81-.33-2.96-1.11-2.47-1.68-3.78-4.29-1.83-7.3,4.71-7.25,3.04-14.32.08-21.5-7.52-18.23-19.66-28.9-36.32-32.04-.92-.17-1.84-.27-2.77-.27-2.17,0-4.38.51-6.65,1.7,6.51,10.61,11.35,22.04,12.85,35.16,2.89,25.22-7,51.67-26.39,64.02-1.18.75-2.27,1.18-3.31,1.18-1.27,0-2.46-.63-3.66-2.09-2.52-3.07-2.88-5.57.77-7.74,11.2-6.67,18.09-17.55,21.64-31.84,7.04-28.3-8.1-61.02-31.73-68.91-4.64-1.55-9.25-2.44-13.85-2.44-3.73,0-7.46.58-11.19,1.87-6.5,2.24-8.57,5.83-8.61,14.26-.14,26.77-.27,53.55-.23,80.32,0,4.32-.71,6.44-4.79,6.59-.12,0-.23,0-.34,0-4.21,0-4.22-3.04-4.23-6.77-.04-26.98-.17-53.96-.19-80.93-.01-13.36,7.01-23.1,18.5-25.65,3.86-.86,7.66-1.29,11.38-1.29m0-8c-4.29,0-8.7.5-13.12,1.48-7.58,1.69-13.92,5.8-18.32,11.91-4.22,5.86-6.45,13.32-6.45,21.56.01,15.01.06,30.27.1,45.03.03,11.97.07,23.94.09,35.91,0,2.44,0,5.2,1.2,7.95,1.87,4.33,5.89,6.81,11.03,6.81.2,0,.41,0,.63-.01,5.88-.21,8.9-3.08,10.4-5.45,1.86-2.94,2.1-6.27,2.1-9.15-.03-26.19.09-51.85.23-80.27.03-5.64.64-5.85,3.22-6.74,2.8-.96,5.61-1.43,8.59-1.43,3.54,0,7.24.66,11.32,2.03,9.19,3.07,17.44,11.29,22.63,22.56,5.38,11.66,6.79,25.08,3.86,36.83-3.18,12.79-9.06,21.59-17.97,26.9-4.56,2.71-6.02,6.19-6.44,8.63-.64,3.67.57,7.39,3.59,11.07,3.4,4.14,7.23,5.01,9.84,5.01s5.04-.79,7.6-2.43c21.32-13.58,33.4-42.38,30.04-71.68-1.02-8.92-3.51-17.66-7.55-26.46,11.24,3.73,19.49,12.24,25.1,25.87,2.83,6.87,2.99,10.43.61,14.09-4.12,6.35-2.45,13.86,4.05,18.28,2.43,1.65,4.94,2.48,7.45,2.48,8.06,0,11.13-7.74,12.46-11.22,3.57,1.08,6.69,3.01,9.53,5.9,6.78,6.89,11.37,15,14.03,24.82,2.95,10.91.49,21.46-5.99,25.65-2.28,1.47-4.72,2.22-7.25,2.22-4.6,0-9.1-2.57-12.28-6.95.09-.03.17-.06.26-.08,1.4-.44,2.99-.95,4.63-1.69,5.46-2.44,8.32-8.26,7.12-14.47-1.48-7.69-7.11-10.42-11.48-10.42-.52,0-1.05.03-1.58.1-.08,0-.36.01-.57.02-.9.02-2.26.05-3.79.44-18.03,4.55-31.47,16.08-39.94,34.27-1.11,2.38-2.14,4.99-2.16,7.98-.03,4.42,2.14,8.19,6.12,10.62,2.15,1.32,4.4,1.98,6.68,1.98s8.13-.83,11.64-8.54c.73-1.61,1.57-3.13,2.52-4.58,7.85,11.75,19.92,18.75,33.06,18.75,9.73,0,18.91-3.96,26.1-11.21.32.55.64,1.13.95,1.7,3.65,6.7,5.42,14.8,5.39,24.76-.04,13.54-2.52,20.91-8.56,25.44-2.6,1.95-5.07,2.86-7.77,2.86-2.35,0-4.92-.68-7.86-2.08-1.48-.7-1.93-1.7-2.48-7.88-.06-.69-.13-1.38-.2-2.08-.73-7.14-5.92-12.13-12.61-12.14-7.21,0-12.37,5.16-12.85,12.83-.2,3.19-.47,7.57,1.18,12.02,1.55,4.17.6,6.31-1.42,8.4-5.1,5.27-5.17,12.48-.18,17.95,2.91,3.19,6.14,4.81,9.6,4.81,2.13,0,6.2-.69,9.55-5.3.52-.72,1.09-1.5,1.66-2.36,4.95,2.26,10.01,3.41,15.08,3.41,3.96,0,7.94-.71,11.84-2.1.04.17.07.33.11.49.2.92.41,1.98.46,2.86.75,12.07-2.02,23.33-8.25,33.47-5.63,9.16-9.54,10.42-12.93,10.42-2.52,0-5.6-.76-9.42-2.34-1.56-.64-3.15-.97-4.72-.97-2.61,0-7.49.93-10.79,7.14-2.84,5.34-2.44,11.05,1.09,15.66,2.5,3.27,5.6,4.55,7.64,5.4.23.09.45.19.68.29.23.1.47.2.7.31-.2.67-.43,1.39-.64,2.07-.2.64-.49,1.35-.74,1.96-11.92,28.37-31.61,44.59-60.19,49.59-8.18,1.43-12.65,6.57-13.29,15.29-.62,8.49-3.22,15.26-7.71,20.14-3.72,4.05-8.02,6.18-12.42,6.18-6.66,0-13.02-4.93-17-13.19-2.95-6.12-7.02-9.23-12.08-9.23-2.45,0-4.91.79-7.31,2.35-3.98,2.59-6.07,6.44-5.88,10.85.13,2.96,1.25,5.35,2.08,7.1.15.31.29.61.42.91,7.56,17.75,22.73,28.78,39.6,28.78,5.04,0,10.03-.99,14.84-2.95,15.36-6.25,25.46-19.82,30-40.35,8.57-1.79,16.78-4.91,24.43-9.3,28.48-16.33,45.43-39.19,51.77-69.84,6.17-2.64,11.83-6.97,17.7-13.53,7.61-8.5,13.81-21.95,16.6-35.97,3-15.09,1.85-29.34-3.22-40.4,7.14-10.87,10.37-27.74,8.66-45.58-1.79-18.66-8.56-34.12-18.67-42.86,2.52-15.3-.47-30.77-8.9-46.02-5.24-9.47-10.94-16.58-17.44-21.72-6.53-5.16-13.84-8.25-21.77-9.2-3.32-12.2-8.73-22.29-16.07-30.02-13.4-14.1-26.58-20.96-40.29-20.96-4.65,0-9.39.8-14.11,2.39-11.46-9.15-23.97-13.79-37.19-13.79h0Z"/>
  </g>
  <g>
    <g>
      <path class="fill4" d="m122.39,472.67c-10.06,0-19.66-4.28-27.02-12.06-13.36-14.1-12.72-36.98,1.42-51,4.56-4.52,9.13-9.04,13.69-13.56,10.63-10.52,21.62-21.41,32.38-32.15l.15-.15c4.07-4.07,9.14-9.13,16.23-9.13,1.31,0,2.62.18,3.92.54.78.21,1.48.32,2.09.32,1.94,0,3.23-1.16,6.15-4.24l.77-.81c.92-.98,2.06-2.2,3.6-3.17.37-.23.6-.42.73-.54-.07-.33-.27-1.02-.89-2.33-12.54-26.57-14.19-56.6-4.63-84.56,9.52-27.85,29.13-50.73,55.22-64.42,16.42-8.61,34.08-12.98,52.5-12.98,22.81,0,44.94,6.75,64.01,19.53,19.64,13.16,34.54,31.8,43.08,53.92,4.7,12.17,7.71,26.08,7.67,35.43.01,29.65-9.99,57.75-28.16,79.08-17.94,21.06-42.99,34.68-70.54,38.36-5.63.75-11.25,1.13-16.69,1.13-23.84,0-46.07-7.29-66.1-21.66-.41.37-.81.72-1.21,1.07-.95.83-1.84,1.61-2.6,2.4-.63.66-1.29,1.25-1.86,1.76-.55.49-1.35,1.21-1.61,1.59.02.13.09.39.27.8,1.28,2.9,1.5,7.66-4.78,13.91-5.33,5.31-10.65,10.63-15.96,15.96-12.13,12.17-24.68,24.76-37.32,36.86-6.78,6.5-15.49,10.07-24.52,10.07Zm37.9-96.78c-.3.25-.74.65-1.33,1.27-14.78,15.53-30.36,30.69-45.43,45.35l-1.04,1.01c-3.96,3.86-5.75,7.74-5.61,12.23v.14c.03,6.5,3.42,11.68,9.29,14.23,2.07.9,4.19,1.35,6.29,1.35,4.14,0,8.1-1.76,11.46-5.1,5.34-5.31,10.67-10.62,15.99-15.94,10.64-10.62,21.63-21.59,32.57-32.3-3.53-3.51-7.06-7.09-10.49-10.56-3.44-3.49-7-7.1-10.53-10.6-.51-.51-.9-.85-1.18-1.07Zm118.37-172.7c-24.8,0-48.14,9.73-65.72,27.39-17.57,17.66-27.18,41.01-27.06,65.76v.14c-.48,23.64,9.18,47.34,26.5,65.02,17.58,17.94,41.07,27.82,66.14,27.82.35,0,.69,0,1.03,0,52.3-.56,93.15-41.14,92.99-92.38-.16-52.33-41.22-93.51-93.47-93.74h-.42Zm-95.95,165.81c2.29,2.24,4.52,4.52,6.69,6.74.86.88,1.71,1.75,2.58,2.63,1.51-1.4,3.14-2.92,4.03-3.91-.82-1.06-2.35-2.7-3.54-3.98-1.34-1.44-2.41-3.16-3.35-4.67-.39-.63-.91-1.47-1.36-2.11-.89.77-2.12,2.13-2.95,3.04-.68.75-1.37,1.52-2.1,2.26Zm-2,1.89h0Z"/>
      <path class="fill4" d="m278.69,187.95c43.44,0,85.1,26.29,101.96,69.93,4.83,12.49,7.34,25.49,7.3,33.42.02,59.24-40.3,104.86-93.92,112.01-5.41.72-10.74,1.08-15.96,1.08-23.34,0-44.78-7.22-64.35-21.69-.88-.65-1.52-.97-2.11-.97-.63,0-1.2.37-1.93,1.09-1.76,1.76-3.78,3.28-5.5,5.07-2.67,2.79-6.7,4.67-4.25,10.18,1.06,2.38-1.43,5.59-3.63,7.78-17.71,17.61-35.17,35.48-53.2,52.76-6.01,5.75-13.35,8.54-20.71,8.54-8.28,0-16.58-3.53-23.03-10.34-11.2-11.83-10.62-31.5,1.3-43.31,15.37-15.24,30.78-30.43,46.09-45.73,3.64-3.63,7.61-7.67,12.49-7.67.79,0,1.61.11,2.46.34,1.3.36,2.47.52,3.54.52,4.68,0,7.41-3.08,10.51-6.34.92-.96,1.82-2.02,2.93-2.71,4.24-2.66,3.94-5.56,1.9-9.87-24.72-52.36-3.06-114.88,48.18-141.76,16.02-8.41,33.12-12.35,49.94-12.35m-.17,206.87c.36,0,.73,0,1.09,0,54.36-.58,98.6-42.51,98.43-97.9-.18-57.21-44.77-98.99-98.94-99.23-.15,0-.3,0-.44,0-54.41,0-98.55,44.54-98.28,98.68-1.03,50.45,41.02,98.45,98.15,98.45m-86.99-9.3c1.94-.44,2.87-1.9,4.05-3,8.23-7.64,8.36-7.78.9-15.79-2.84-3.05-4.75-9.07-8.24-9.07-.14,0-.28,0-.43.03-3.79.53-6.9,5.72-10.4,8.76-1.86,1.61-2.3,2.88-.28,4.81,4.2,4,8.19,8.23,12.29,12.34.69.69,1.45,1.31,2.12,1.91m-69.07,71.45c5.51,0,10.88-2.27,15.34-6.7,16.41-16.31,32.7-32.73,49.24-48.91,2.62-2.56,2.47-4.02.12-6.35-7.33-7.26-14.5-14.68-21.82-21.95-2-1.98-3.54-2.97-5.07-2.97-1.61,0-3.2,1.1-5.29,3.29-15.04,15.8-30.68,30.99-46.32,46.2-4.6,4.47-7.47,9.72-7.28,16.33.04,8.72,4.69,15.82,12.61,19.25,2.79,1.21,5.65,1.81,8.48,1.81m156.23-280.01h0c-19.32,0-37.84,4.58-55.05,13.61-27.34,14.34-47.89,38.32-57.87,67.51-9.81,28.7-8.37,59.48,4.03,86.91-.65.61-1.2,1.2-1.67,1.7l-.36.38-.38.4c-.8.85-1.86,1.96-2.49,2.47-.08-.02-.18-.04-.29-.07-1.77-.49-3.58-.73-5.37-.73-9.38,0-15.84,6.46-20.12,10.74l-.15.15c-10.74,10.73-21.72,21.6-32.33,32.11-4.58,4.53-9.15,9.06-13.72,13.59-7.77,7.71-12.24,18.05-12.57,29.13-.33,11.2,3.58,21.69,11.03,29.55,8.41,8.88,19.43,13.78,31.02,13.78,10.45,0,20.51-4.12,28.32-11.6,12.69-12.16,25.27-24.77,37.43-36.97,5.21-5.23,10.6-10.64,15.92-15.93,6.91-6.88,7.65-12.91,6.88-16.98.38-.36.79-.75,1.2-1.18.09-.09.18-.19.28-.28,20.04,13.39,42.09,20.17,65.66,20.17,5.68,0,11.54-.4,17.41-1.18,28.9-3.86,55.18-18.15,74-40.25,19.01-22.32,29.48-51.67,29.47-82.65.04-10.13-3.04-24.46-8.04-37.41-8.95-23.17-24.56-42.71-45.15-56.5-19.98-13.39-43.17-20.46-67.07-20.46h0Zm-.17,206.87c-23.59,0-45.68-9.29-62.21-26.16-16.3-16.63-25.39-38.89-24.94-61.06v-.14s0-.14,0-.14c-.11-23.28,8.93-45.24,25.46-61.86,16.54-16.62,38.49-25.77,61.82-25.77h.39c50.01.22,87.84,38.17,87.99,88.26.15,48.18-38.31,86.33-87.55,86.86-.33,0-.65,0-.98,0h0Zm-156.06,62.15c-1.34,0-2.73-.3-4.11-.9-3.89-1.68-5.96-4.87-5.98-9.21v-.14s0-.14,0-.14c-.06-2.05.36-4.62,3.95-8.12l1.06-1.03c14.23-13.84,28.91-28.13,42.99-42.79,2.59,2.6,5.18,5.22,7.71,7.79,2.16,2.19,4.36,4.42,6.58,6.65-9.64,9.49-19.28,19.11-28.65,28.46-5.32,5.31-10.64,10.62-15.97,15.92-1.61,1.6-4.23,3.5-7.58,3.5h0Z"/>
    </g>
    <circle class="fill5" cx="279.05" cy="296.55" r="88.33"/>
    <path class="fill2" d="m303.67,302.34c-.01,1.45-.58,2.42-1.87,2.76-1.44.38-2.9.74-4.38.94-10.33,1.43-13.75,4.83-14.89,15.26-.28,2.55-.11,5.67-3.38,5.66-3.42-.01-3.49-3.19-3.78-5.94-1.03-9.89-4.35-13.15-14.14-15.02-2.43-.46-6.56.51-6.63-3.54-.08-4.16,4.09-3.12,6.53-3.7,11.44-2.72,12.39-3.67,14.58-15.6.37-2,.25-4.83,3.21-4.89,3.08-.06,3.24,2.44,3.63,4.91,1.68,10.78,3.72,12.7,14.39,15.42,2.45.63,6.04-.04,6.72,3.75Z"/>
    <path class="fill2" d="m341.91,269.01c0,1.26-.81,2.31-2.13,2.78-1.07.39-2.28.39-3.42.59-10.9,1.9-12.16,3.2-13.87,14.12-.15.97-.28,1.97-.63,2.88-.54,1.35-1.61,2.07-3.13,1.96-1.3-.09-2.18-.82-2.63-1.98-.29-.75-.39-1.59-.53-2.4-2.08-11.58-3.61-13.11-15.07-14.83-2.08-.31-4.26-.75-4.47-3.12-.23-2.6,2.13-3.01,4.09-3.43,1.13-.24,2.31-.23,3.45-.44,7.88-1.51,10.35-4.39,11.84-14.18.38-2.51.25-5.57,3.6-5.47,3.11.1,3.26,2.93,3.59,5.57,1.23,9.85,3.96,12.43,14.08,14.31,2.1.39,4.98-.02,5.25,3.64Z"/>
  </g>
  <g>
    <path class="fill1" d="m311.51,138.91c-1.43,0-2.87-.47-4.15-1.36-5.64-3.91-5.24-8.67-3.91-11.97,2.44-6.09,2.2-12.27-.73-18.89-3.67-8.28,1.47-12.09,3.14-13.06,1.38-.8,2.79-1.21,4.21-1.21,1.9,0,5.47.78,7.96,6,2.73,5.72,4.13,11.95,4.39,19.62v.27s-.1,1.17-.1,1.17c-.42,4.38-.94,9.83-3.74,14.69-2.38,4.14-5.45,4.76-7.06,4.76Z"/>
    <path class="fill1" d="m310.07,96.42c1.82,0,3.28,1.48,4.35,3.72,2.57,5.38,3.77,11.25,4.01,18.03-.44,4.48-.78,9.58-3.31,13.98-.97,1.69-2.22,2.75-3.6,2.75-.6,0-1.23-.2-1.87-.65-2.1-1.46-3.97-3.5-2.48-7.2,2.99-7.45,2.39-14.83-.79-22-1.43-3.21-1.53-6.22,1.49-7.98.78-.46,1.51-.66,2.2-.66m0-8h0c-2.14,0-4.23.59-6.23,1.75-4.93,2.87-8.77,9.14-4.78,18.13,2.48,5.58,2.7,10.74.68,15.78-1.23,3.07-3.17,10.84,5.35,16.75,1.96,1.36,4.18,2.08,6.43,2.08,4.22,0,8.05-2.46,10.53-6.76,3.23-5.61,3.8-11.54,4.26-16.3l.09-.89.05-.53-.02-.53c-.28-8.12-1.85-15.06-4.78-21.2-3.57-7.47-9.28-8.27-11.57-8.27h0Z"/>
  </g>
</svg>